{"title":"Fifty Shades of Grey 2015 TS XviD AC3 MURD3R (Russian)","uid":11704413,"size":1260409922,"categoryP":"video","categoryS":"movies","magnet":"?xt=urn:btih:f0d17e37e91eeff1070fe85b3d8dd730582fd601&amp;dn=Fifty+Shades+of+Grey+2015+TS+XviD+AC3+MURD3R+%28Russian%29&amp;tr=udp%3A%2F%2Ftracker.openbittorrent.com%3A80&amp;tr=udp%3A%2F%2Fopen.demonii.com%3A1337&amp;tr=udp%3A%2F%2Ftracker.coppersurfer.tk%3A6969&amp;tr=udp%3A%2F%2Fexodus.desync.com%3A6969","seeders":18,"leechers":2,"uploader":".BONE.","files":6,"time":1424054023,"description":"Fifty Shades of Grey 2015 TS XviD AC3 MURD3R.avi\nFormat : AVI\nFormat/Info : Audio Video Interleave\nFile size : 1.17 GiB\nDuration : 1h 47mn\nOverall bit rate : 1 568 Kbps\n\nVideo\nID : 0\nFormat : MPEG-4 Visual\nFormat profile : Advanced Simple@L5\nFormat settings, BVOP : 2\nFormat settings, QPel : No\nFormat settings, GMC : No warppoints\nFormat settings, Matrix : Default (H.263)\nCodec ID : XVID\nCodec ID/Hint : XviD\nDuration : 1h 47mn\nBit rate : 1 501 Kbps\nWidth : 720 pixels\nHeight : 304 pixels\nDisplay aspect ratio : 2.35:1\nFrame rate : 29.970 fps\nColor space : YUV\nChroma subsampling : 4:2:0\nBit depth : 8 bits\nScan type : Progressive\nCompression mode : Lossy\nBits/(Pixel*Frame) : 0.229\nStream size : 1.12 GiB (96%)\nWriting library : XviD 65\n\nAudio\nID : 1\nFormat : AC-3\nFormat/Info : Audio Coding 3\nMode extension : CM (complete main)\nFormat settings, Endianness : Big\nCodec ID : 2000\nDuration : 1h 47mn\nBit rate mode : Constant\nBit rate : 56.0 Kbps\nChannel(s) : 2 channels\nChannel positions : Front: L R\nSampling rate : 44.1 KHz\nBit depth : 16 bits\nCompression mode : Lossy\nStream size : 42.9 MiB (4%)\nAlignment : Aligned on interleaves\nInterleave, duration : 35 ms (1.04 video frame)\n &lt;a href=&quot;\nhttp://s20.postimage.org/uso5j1jp9/vlcsnap_2015_02_15_21h53m27s182.png&quot; rel=&quot;nofollow&quot; target=&quot;_NEW&quot;&gt;\nhttp://s20.postimage.org/uso5j1jp9/vlcsnap_2015_02_15_21h53m27s182.png&lt;/a&gt; &lt;a href=&quot;\nhttp://s20.postimage.org/spdqbdjwd/vlcsnap_2015_02_15_21h54m19s187.png&quot; rel=&quot;nofollow&quot; target=&quot;_NEW&quot;&gt;\nhttp://s20.postimage.org/spdqbdjwd/vlcsnap_2015_02_15_21h54m19s187.png&lt;/a&gt; &lt;a href=&quot;\nhttp://s20.postimage.org/e7l4h4hz1/vlcsnap_2015_02_15_21h53m23s140.png&quot; rel=&quot;nofollow&quot; target=&quot;_NEW&quot;&gt;\nhttp://s20.postimage.org/e7l4h4hz1/vlcsnap_2015_02_15_21h53m23s140.png&lt;/a&gt;","torrent":{"xt":"urn:btih:f0d17e37e91eeff1070fe85b3d8dd730582fd601","amp;dn":"Fifty+Shades+of+Grey+2015+TS+XviD+AC3+MURD3R+%28Russian%29","amp;tr":["udp%3A%2F%2Ftracker.openbittorrent.com%3A80","udp%3A%2F%2Fopen.demonii.com%3A1337","udp%3A%2F%2Ftracker.coppersurfer.tk%3A6969","udp%3A%2F%2Fexodus.desync.com%3A6969"],"infoHash":"f0d17e37e91eeff1070fe85b3d8dd730582fd601","infoHashBuffer":{"type":"Buffer","data":[240,209,126,55,233,30,239,241,7,15,232,91,61,141,215,48,88,47,214,1]},"announce":[],"urlList":[]}}